<svg width="41" height="40" viewBox="0 0 41 40" fill="none" xmlns="http://www.w3.org/2000/svg">
<path d="M20.5977 21.5195C20.5977 21.5195 20.5911 21.5195 20.5781 21.5195C20.5651 21.5195 20.5521 21.5195 20.5391 21.5195C20.526 21.5195 20.513 21.5195 20.5 21.5195C20.487 21.5195 20.474 21.5195 20.4609 21.5195C19.5104 21.4935 18.7161 21.1615 18.0781 20.5234C17.4531 19.8724 17.1406 19.0911 17.1406 18.1797C17.1406 17.2552 17.4661 16.4674 18.1172 15.8164C18.7812 15.1523 19.5755 14.8203 20.5 14.8203C21.4245 14.8203 22.2122 15.1523 22.8633 15.8164C23.5273 16.4674 23.8594 17.2552 23.8594 18.1797C23.8594 19.0911 23.5469 19.8724 22.9219 20.5234C22.2969 21.1615 21.5286 21.4935 20.6172 21.5195C20.6172 21.5195 20.6107 21.5195 20.5977 21.5195ZM20.5 16.0508C19.9141 16.0508 19.4128 16.2591 18.9961 16.6758C18.5924 17.0924 18.3906 17.5872 18.3906 18.1602C18.3906 18.7331 18.5859 19.2279 18.9766 19.6445C19.3672 20.0482 19.849 20.2565 20.4219 20.2695C20.4349 20.2695 20.4544 20.2695 20.4805 20.2695C20.5195 20.2695 20.5651 20.2695 20.6172 20.2695C21.1641 20.2435 21.6328 20.0286 22.0234 19.625C22.4141 19.2214 22.6094 18.7331 22.6094 18.1602C22.6094 17.5872 22.401 17.0924 21.9844 16.6758C21.5807 16.2591 21.0859 16.0508 20.5 16.0508ZM20.5 29.2148C19.9401 29.2148 19.3867 29.1628 18.8398 29.0586C18.293 28.9544 17.7656 28.8047 17.2578 28.6094C16.75 28.401 16.2617 28.1536 15.793 27.8672C15.3242 27.5677 14.8815 27.2292 14.4648 26.8516C14.3867 26.7865 14.3281 26.7083 14.2891 26.6172C14.263 26.526 14.25 26.4284 14.25 26.3242C14.3151 25.8294 14.4974 25.3607 14.7969 24.918C15.0964 24.4753 15.5 24.0781 16.0078 23.7266C16.6328 23.3229 17.3359 23.0169 18.1172 22.8086C18.8984 22.6003 19.6927 22.4961 20.5 22.4961C21.3203 22.4961 22.1211 22.6003 22.9023 22.8086C23.6706 23.0169 24.3672 23.3229 24.9922 23.7266C25.5 24.0781 25.9036 24.4753 26.2031 24.918C26.5026 25.3607 26.6849 25.8294 26.75 26.3242C26.763 26.4284 26.75 26.526 26.7109 26.6172C26.6719 26.7083 26.6133 26.7865 26.5352 26.8516C26.1315 27.2292 25.6888 27.5677 25.207 27.8672C24.7383 28.1536 24.25 28.401 23.7422 28.6094C23.2344 28.8047 22.707 28.9544 22.1602 29.0586C21.6133 29.1628 21.0599 29.2148 20.5 29.2148ZM15.5586 26.168C16.2617 26.7409 17.0365 27.1836 17.8828 27.4961C18.7292 27.8086 19.6016 27.9648 20.5 27.9648C21.3984 27.9648 22.2708 27.8086 23.1172 27.4961C23.9766 27.1836 24.7513 26.7409 25.4414 26.168C25.3633 25.9076 25.2266 25.6602 25.0312 25.4258C24.8359 25.1914 24.5885 24.9701 24.2891 24.7617C23.7812 24.4232 23.1953 24.1693 22.5312 24C21.8672 23.8307 21.1901 23.7461 20.5 23.7461C19.8099 23.7461 19.1328 23.8307 18.4688 24C17.8047 24.1693 17.2122 24.4232 16.6914 24.7617C16.4049 24.9701 16.1641 25.1914 15.9688 25.4258C15.7734 25.6602 15.6367 25.9076 15.5586 26.168ZM20.5 29.2148C19.263 29.2148 18.1042 28.9805 17.0234 28.5117C15.9297 28.0299 14.9792 27.3854 14.1719 26.5781C13.3646 25.7708 12.7201 24.8203 12.2383 23.7266C11.7695 22.6458 11.5352 21.487 11.5352 20.25C11.5352 19.013 11.7695 17.8542 12.2383 16.7734C12.7201 15.6797 13.3646 14.7292 14.1719 13.9219C14.9792 13.1146 15.9297 12.4701 17.0234 11.9883C18.1042 11.5195 19.263 11.2852 20.5 11.2852C21.737 11.2852 22.8958 11.5195 23.9766 11.9883C25.0703 12.4701 26.0208 13.1146 26.8281 13.9219C27.6354 14.7292 28.2799 15.6797 28.7617 16.7734C29.2305 17.8542 29.4648 19.013 29.4648 20.25C29.4648 21.487 29.2305 22.6458 28.7617 23.7266C28.2799 24.8203 27.6354 25.7708 26.8281 26.5781C26.0208 27.3854 25.0703 28.0299 23.9766 28.5117C22.8958 28.9805 21.737 29.2148 20.5 29.2148ZM20.5 12.5352C19.4323 12.5352 18.4362 12.737 17.5117 13.1406C16.5742 13.5443 15.7539 14.0977 15.0508 14.8008C14.3477 15.5039 13.7943 16.3242 13.3906 17.2617C12.987 18.1862 12.7852 19.1823 12.7852 20.25C12.7852 21.3177 12.987 22.3138 13.3906 23.2383C13.7943 24.1758 14.3477 24.9961 15.0508 25.6992C15.7539 26.4023 16.5742 26.9557 17.5117 27.3594C18.4362 27.763 19.4323 27.9648 20.5 27.9648C21.5677 27.9648 22.5638 27.763 23.4883 27.3594C24.4258 26.9557 25.2461 26.4023 25.9492 25.6992C26.6523 24.9961 27.2057 24.1758 27.6094 23.2383C28.013 22.3138 28.2148 21.3177 28.2148 20.25C28.2148 19.1823 28.013 18.1862 27.6094 17.2617C27.2057 16.3242 26.6523 15.5039 25.9492 14.8008C25.2461 14.0977 24.4258 13.5443 23.4883 13.1406C22.5638 12.737 21.5677 12.5352 20.5 12.5352Z" fill="#17171D"/>
</svg>
