<svg width="40" height="40" viewBox="0 0 40 40" fill="none" xmlns="http://www.w3.org/2000/svg">
<path d="M16.1538 14.7964C16.156 15.1475 15.9557 15.4483 15.6794 15.5698C15.4174 15.6846 15.1786 15.8384 14.965 16.0278C14.8142 16.1615 14.6656 16.3042 14.5457 16.4658C14.4169 16.6396 14.3068 16.8324 14.2176 17.0307C14.0877 17.3205 13.9843 17.6225 13.8709 17.9189C13.7983 18.1072 13.7179 18.2911 13.5858 18.446C13.4735 18.5764 13.3326 18.6655 13.1631 18.6867C12.9144 18.7179 12.7129 18.6176 12.5544 18.4293C12.3904 18.2354 12.3123 17.9969 12.2253 17.7629C12.1273 17.4988 12.0437 17.2269 11.9193 16.9773C11.6386 16.4145 11.2324 15.9654 10.6722 15.6712C10.5654 15.6155 10.4575 15.5598 10.3563 15.4952C9.94238 15.2355 9.84771 14.6126 10.2946 14.2426C10.397 14.1579 10.5225 14.0989 10.6413 14.0365C11.042 13.8258 11.3744 13.5383 11.643 13.1695C11.8918 12.8274 12.0569 12.4474 12.1901 12.0484C12.2605 11.8367 12.3464 11.6283 12.4443 11.4289C12.5456 11.2238 12.7052 11.0711 12.9353 11.0177C13.1895 10.9597 13.3987 11.0477 13.5726 11.2327C13.7674 11.44 13.8522 11.7063 13.9402 11.9693C14.0338 12.2479 14.1263 12.5254 14.2683 12.7839C14.4433 13.1015 14.6568 13.389 14.9276 13.6286C15.1599 13.8336 15.4196 13.9919 15.697 14.1289C15.9832 14.2705 16.1472 14.5134 16.1527 14.7964H16.1538ZM13.0828 16.799C13.1015 16.7388 13.1092 16.7009 13.1246 16.6663C13.2842 16.3031 13.4945 15.9699 13.7399 15.6601C13.9788 15.3581 14.2606 15.1029 14.5787 14.8889C14.6205 14.8611 14.6238 14.8388 14.5798 14.8065C14.2837 14.5947 14.003 14.3663 13.7806 14.0732C13.6276 13.8715 13.4812 13.6654 13.347 13.4503C13.2424 13.282 13.1631 13.0982 13.0729 12.9199C12.7404 13.7055 12.2396 14.3563 11.523 14.8444C12.244 15.3313 12.7471 15.9855 13.0828 16.7978V16.799Z" fill="#17171D"/>
<path d="M16.1538 25.5657C16.156 25.9167 15.9557 26.2176 15.6794 26.339C15.4174 26.4538 15.1786 26.6076 14.965 26.797C14.8142 26.9308 14.6656 27.0734 14.5457 27.235C14.4169 27.4088 14.3068 27.6016 14.2176 27.8C14.0877 28.0897 13.9843 28.3917 13.8709 28.6881C13.7983 28.8764 13.7179 29.0603 13.5858 29.2152C13.4735 29.3456 13.3326 29.4347 13.1631 29.4559C12.9144 29.4871 12.7129 29.3868 12.5544 29.1985C12.3904 29.0046 12.3123 28.7661 12.2253 28.5321C12.1273 28.268 12.0437 27.9961 11.9193 27.7465C11.6386 27.1837 11.2324 26.7346 10.6722 26.4404C10.5654 26.3847 10.4575 26.329 10.3563 26.2644C9.94238 26.0047 9.84771 25.3818 10.2946 25.0118C10.397 24.9271 10.5225 24.8681 10.6413 24.8057C11.042 24.5951 11.3744 24.3076 11.643 23.9387C11.8918 23.5966 12.0569 23.2166 12.1901 22.8177C12.2605 22.6059 12.3464 22.3976 12.4443 22.1981C12.5456 21.993 12.7052 21.8404 12.9353 21.7869C13.1895 21.7289 13.3987 21.817 13.5726 22.002C13.7674 22.2092 13.8522 22.4756 13.9402 22.7385C14.0338 23.0171 14.1263 23.2946 14.2683 23.5531C14.4433 23.8707 14.6568 24.1582 14.9276 24.3978C15.1599 24.6029 15.4196 24.7611 15.697 24.8982C15.9832 25.0397 16.1472 25.2826 16.1527 25.5657H16.1538ZM13.0828 27.5682C13.1015 27.508 13.1092 27.4701 13.1246 27.4356C13.2842 27.0723 13.4945 26.7391 13.7399 26.4293C13.9788 26.1273 14.2606 25.8721 14.5787 25.6582C14.6205 25.6303 14.6238 25.608 14.5798 25.5757C14.2837 25.364 14.003 25.1355 13.7806 24.8425C13.6276 24.6408 13.4812 24.4346 13.347 24.2195C13.2424 24.0513 13.1631 23.8674 13.0729 23.6891C12.7404 24.4747 12.2396 25.1255 11.523 25.6136C12.244 26.1006 12.7471 26.7547 13.0828 27.5671V27.5682Z" fill="#17171D"/>
<path fill-rule="evenodd" clip-rule="evenodd" d="M22.4336 11.2068C22.5921 11.101 22.8118 11 23.0759 11C23.34 11 23.5597 11.1009 23.7182 11.2068C23.8783 11.3137 24.0115 11.4488 24.1174 11.5787C24.3263 11.8351 24.4907 12.1478 24.5738 12.4113L24.5784 12.4258L24.5822 12.4405C25.2632 15.0511 26.6348 17.6513 29.278 19.0765L29.2894 19.0826C29.6759 19.3014 30 19.715 30 20.2297C30 20.2299 30 20.2296 30 20.2297C30.0002 20.7444 29.6764 21.1579 29.2897 21.3767L29.2785 21.3831C26.6354 22.8082 25.2637 25.4103 24.5826 28.021L24.5788 28.0359L24.5741 28.0505C24.4909 28.3139 24.3266 28.6265 24.1177 28.8828C24.0118 29.0127 23.8786 29.1478 23.7186 29.2547C23.5601 29.3606 23.3404 29.4615 23.0763 29.4615C22.8123 29.4615 22.5926 29.3606 22.4341 29.2548C22.2741 29.1479 22.1409 29.0129 22.0349 28.8829C21.826 28.6266 21.6615 28.3139 21.5784 28.0502L21.5738 28.0357L21.57 28.021C20.8888 25.41 19.519 22.808 16.8761 21.383L16.8645 21.3767C16.4789 21.1583 16.1539 20.745 16.1539 20.2297C16.1539 19.715 16.478 19.3015 16.8646 19.0828L16.8759 19.0764C19.5188 17.6513 20.8884 15.0515 21.5695 12.4406L21.5734 12.4257L21.5781 12.411C21.6613 12.1477 21.8256 11.835 22.0345 11.5787C22.1404 11.4488 22.2736 11.3138 22.4336 11.2068ZM22.7847 12.762C22.0602 15.5278 20.5535 18.4956 17.4912 20.1502C17.4566 20.1706 17.434 20.1942 17.4221 20.2123C17.4165 20.2208 17.4141 20.2266 17.4131 20.2296C17.4141 20.2327 17.4165 20.2385 17.4221 20.2469C17.4342 20.2651 17.4569 20.2889 17.4916 20.3093C20.5539 21.9641 22.0607 24.9342 22.7852 27.6997C22.8235 27.8141 22.9107 27.9827 23.0192 28.1157C23.0398 28.141 23.059 28.1623 23.0763 28.1798C23.0935 28.1623 23.1127 28.141 23.1333 28.1157C23.2417 27.9827 23.329 27.8141 23.3675 27.6995C24.092 24.9338 25.6009 21.9639 28.6631 20.3092C28.6976 20.289 28.7201 20.2654 28.7319 20.2474C28.7376 20.2387 28.74 20.2329 28.7409 20.23C28.74 20.227 28.7376 20.2211 28.7318 20.2123C28.7199 20.1942 28.6973 20.1706 28.6627 20.1502C25.6005 18.4957 24.0916 15.5278 23.367 12.7619C23.3286 12.6474 23.2415 12.4789 23.133 12.3458C23.1124 12.3205 23.0932 12.2992 23.076 12.2817C23.0587 12.2992 23.0395 12.3205 23.0189 12.3458C22.9105 12.4789 22.8232 12.6474 22.7847 12.762ZM23.1546 12.2165C23.1546 12.2165 23.154 12.2169 23.1528 12.2174ZM22.9976 28.245C22.9976 28.245 22.9982 28.2447 22.9994 28.2442ZM23.1532 28.2441C23.1543 28.2447 23.1549 28.245 23.1549 28.245Z" fill="#17171D"/>
</svg>
