<svg width="41" height="40" viewBox="0 0 41 40" fill="none" xmlns="http://www.w3.org/2000/svg">
<path fill-rule="evenodd" clip-rule="evenodd" d="M13.3876 17.1415C13.3876 15.1668 13.7863 13.9433 14.5315 13.1981C15.2767 12.4529 16.5002 12.0542 18.4748 12.0542H23.3585C25.3332 12.0542 26.5567 12.4529 27.3019 13.1981C28.0471 13.9433 28.4458 15.1668 28.4458 17.1415V22.0252C28.4458 23.9998 28.0471 25.2233 27.3019 25.9685C26.5567 26.7137 25.3332 27.1124 23.3585 27.1124H18.4748C16.5002 27.1124 15.2767 26.7137 14.5315 25.9685C13.7863 25.2233 13.3876 23.9998 13.3876 22.0252V17.1415ZM18.4748 10.8333C16.3797 10.8333 14.7544 11.2486 13.6682 12.3348C12.582 13.421 12.1667 15.0464 12.1667 17.1415V22.0252C12.1667 24.1203 12.582 25.7456 13.6682 26.8318C14.7544 27.918 16.3797 28.3333 18.4748 28.3333H23.3585C25.4536 28.3333 27.079 27.918 28.1652 26.8318C29.2514 25.7456 29.6667 24.1203 29.6667 22.0252V17.1415C29.6667 15.0464 29.2514 13.421 28.1652 12.3348C27.079 11.2486 25.4536 10.8333 23.3585 10.8333H18.4748ZM17.9712 22.601V23.653H23.791V22.601H19.9633V20.3291H21.2168V19.3889H19.9633V18.0795C19.9633 17.6542 20.079 17.3222 20.3103 17.0834C20.5491 16.8372 20.8699 16.7141 21.2728 16.7141C21.6906 16.7141 22.0115 16.8372 22.2353 17.0834C22.4666 17.3222 22.5822 17.6542 22.5822 18.0795V18.7846H23.7462V18.1019C23.7462 17.3184 23.5224 16.7178 23.0747 16.3C22.6345 15.8747 22.0338 15.662 21.2728 15.662C20.5117 15.662 19.9074 15.8747 19.4597 16.3C19.0195 16.7178 18.7994 17.3184 18.7994 18.1019V19.3889H18.016V20.3291H18.7994V22.601H17.9712Z" fill="#17171D"/>
</svg>
