<svg width="41" height="40" viewBox="0 0 41 40" fill="none" xmlns="http://www.w3.org/2000/svg">
<path fill-rule="evenodd" clip-rule="evenodd" d="M13.6682 12.3348C14.7543 11.2486 16.3797 10.8333 18.4748 10.8333H23.3585C25.4536 10.8333 27.0789 11.2486 28.1651 12.3348C29.2513 13.421 29.6666 15.0463 29.6666 17.1414V22.0251C29.6666 24.1202 29.2513 25.7456 28.1651 26.8318C27.0789 27.918 25.4536 28.3332 23.3585 28.3332H18.4748C16.3797 28.3332 14.7543 27.918 13.6682 26.8318C12.582 25.7456 12.1667 24.1202 12.1667 22.0251V17.1414C12.1667 15.0463 12.582 13.421 13.6682 12.3348ZM17.8643 22.5816V23.6532H23.969V22.5816H19.954V20.2675H21.2688V19.3099H19.954V17.9761C19.954 17.5429 20.0753 17.2047 20.3179 16.9615C20.5684 16.7107 20.9049 16.5853 21.3275 16.5853C21.7658 16.5853 22.1023 16.7107 22.3371 16.9615C22.5798 17.2047 22.7011 17.5429 22.7011 17.9761V18.6943H23.922V17.9989C23.922 17.2009 23.6872 16.5891 23.2176 16.1635C22.7559 15.7303 22.1258 15.5137 21.3275 15.5137C20.5292 15.5137 19.8953 15.7303 19.4257 16.1635C18.9639 16.5891 18.7331 17.2009 18.7331 17.9989V19.3099H17.9113V20.2675H18.7331V22.5816H17.8643Z" fill="#17171D"/>
</svg>
