<svg width="40" height="40" viewBox="0 0 40 40" fill="none" xmlns="http://www.w3.org/2000/svg">
<path d="M32.1209 18.5C26.4654 14.7433 23.614 7.94333 22.2246 1.38208C21.9887 0.460833 21.2199 0 20.4507 0C19.682 0 18.9132 0.460833 18.6769 1.38208C17.2875 7.94375 14.4402 14.7433 8.78473 18.5C8.31851 18.825 8 19.3879 8 19.9975C8 20.6071 8.31935 21.17 8.78515 21.495C14.4406 25.2517 17.2883 32.0567 18.6778 38.6179C18.9136 39.5396 19.6828 40 20.4516 40C21.2204 40 21.9891 39.5392 22.2254 38.6179C23.6148 32.0567 26.4663 25.2517 32.1218 21.495C32.588 21.17 32.9061 20.6071 32.9057 19.9975C32.9057 19.3879 32.5872 18.825 32.1209 18.5Z" fill="#17171D"/>
</svg>
