<svg width="40" height="40" viewBox="0 0 40 40" fill="none" xmlns="http://www.w3.org/2000/svg">
<path d="M27.2656 17.0078V24.8594C27.2656 25.888 26.901 26.7669 26.1719 27.4961C25.4427 28.2253 24.5638 28.5898 23.5352 28.5898H16.4648C15.4362 28.5898 14.5573 28.2253 13.8281 27.4961C13.099 26.7669 12.7344 25.888 12.7344 24.8594V17.0078C12.7344 16.3047 12.9167 15.6602 13.2812 15.0742C13.6458 14.4883 14.1211 14.0391 14.707 13.7266C14.9154 13.6224 15.1172 13.6289 15.3125 13.7461C15.5208 13.8633 15.625 14.0391 15.625 14.2734C15.625 14.9375 15.8594 15.5039 16.3281 15.9727C16.8099 16.4414 17.3828 16.6758 18.0469 16.6758H21.9531C22.6172 16.6758 23.1836 16.4414 23.6523 15.9727C24.1341 15.5039 24.375 14.9375 24.375 14.2734C24.375 14.0391 24.4727 13.8633 24.668 13.7461C24.8633 13.6289 25.0651 13.6224 25.2734 13.7266C25.8724 14.0391 26.3542 14.4883 26.7188 15.0742C27.0833 15.6602 27.2656 16.3047 27.2656 17.0078ZM21.9531 11.9102H18.0469C17.6042 11.9102 17.2266 12.0664 16.9141 12.3789C16.6146 12.6784 16.4648 13.0495 16.4648 13.4922V14.2734C16.4648 14.7031 16.6146 15.0742 16.9141 15.3867C17.2266 15.6862 17.5977 15.8359 18.0273 15.8359H21.9531C22.3958 15.8359 22.7669 15.6862 23.0664 15.3867C23.3659 15.0742 23.5156 14.7031 23.5156 14.2734V13.4922C23.5286 13.0495 23.3789 12.6784 23.0664 12.3789C22.7669 12.0664 22.3958 11.9102 21.9531 11.9102Z" fill="#17171D"/>
</svg>
