<svg width="40" height="40" viewBox="0 0 40 40" fill="none" xmlns="http://www.w3.org/2000/svg">
<path d="M21.6602 15.875H18.3398C17.9362 15.875 17.4479 15.7839 16.875 15.6016C16.3151 15.4062 16.0352 14.7357 16.0352 13.5898C16.0352 12.444 16.3151 11.7734 16.875 11.5781C17.4479 11.3828 17.9362 11.2852 18.3398 11.2852H21.6602C22.0638 11.2852 22.5456 11.3828 23.1055 11.5781C23.6784 11.7734 23.9648 12.444 23.9648 13.5898C23.9648 13.9805 23.8672 14.4622 23.6719 15.0352C23.4766 15.5951 22.806 15.875 21.6602 15.875ZM18.3398 12.5352C17.9232 12.5352 17.6432 12.5807 17.5 12.6719C17.3568 12.763 17.2852 13.069 17.2852 13.5898C17.2852 14.1107 17.3568 14.4167 17.5 14.5078C17.6432 14.5859 17.9232 14.625 18.3398 14.625H21.6602C22.181 14.625 22.487 14.5534 22.5781 14.4102C22.6693 14.2669 22.7148 13.9935 22.7148 13.5898C22.7148 13.069 22.6432 12.763 22.5 12.6719C22.3568 12.5807 22.0768 12.5352 21.6602 12.5352H18.3398ZM22.5 29.2148H17.5C16.3281 29.2148 15.3776 29.0846 14.6484 28.8242C13.9193 28.5638 13.3464 28.1927 12.9297 27.7109C12.526 27.2161 12.2461 26.6237 12.0898 25.9336C11.9466 25.2305 11.875 24.4492 11.875 23.5898V18.5898C11.875 17.6393 11.9661 16.819 12.1484 16.1289C12.3177 15.4388 12.5911 14.8724 12.9688 14.4297C13.3594 13.974 13.8542 13.6289 14.4531 13.3945C15.0651 13.1602 15.7943 13.0234 16.6406 12.9844C16.8099 12.9714 16.9596 13.0234 17.0898 13.1406C17.2201 13.2578 17.2852 13.401 17.2852 13.5703C17.2982 13.7526 17.2461 13.9089 17.1289 14.0391C17.0117 14.1562 16.8685 14.2214 16.6992 14.2344C15.5143 14.2995 14.6224 14.6055 14.0234 15.1523C13.4245 15.6862 13.125 16.832 13.125 18.5898V23.5898C13.125 25.1263 13.3789 26.2396 13.8867 26.9297C14.4076 27.6198 15.612 27.9648 17.5 27.9648H22.5C24.388 27.9648 25.5859 27.6198 26.0938 26.9297C26.6146 26.2396 26.875 25.1263 26.875 23.5898V18.5898C26.875 16.832 26.5755 15.6862 25.9766 15.1523C25.3776 14.6055 24.4857 14.2995 23.3008 14.2344C23.1315 14.2214 22.9883 14.1497 22.8711 14.0195C22.7539 13.8893 22.7018 13.7396 22.7148 13.5703C22.7148 13.401 22.7799 13.2578 22.9102 13.1406C23.0404 13.0234 23.1901 12.9714 23.3594 12.9844C24.2057 13.0234 24.9349 13.1602 25.5469 13.3945C26.1458 13.6289 26.6341 13.974 27.0117 14.4297C27.4023 14.8724 27.6823 15.4388 27.8516 16.1289C28.0339 16.806 28.125 17.6198 28.125 18.5703V23.5703C28.125 24.4427 28.0534 25.2305 27.9102 25.9336C27.7539 26.6237 27.4674 27.2161 27.0508 27.7109C26.6471 28.1927 26.0807 28.5638 25.3516 28.8242C24.6224 29.0846 23.6719 29.2148 22.5 29.2148Z" fill="#17171D"/>
</svg>
