<svg width="40" height="40" viewBox="0 0 40 40" fill="none" xmlns="http://www.w3.org/2000/svg">
<path d="M20 25.875C19.8307 25.875 19.681 25.8164 19.5508 25.6992C19.4336 25.569 19.375 25.4193 19.375 25.25V22.75C19.375 22.5807 19.4336 22.4375 19.5508 22.3203C19.681 22.1901 19.8307 22.125 20 22.125C20.1693 22.125 20.3125 22.1901 20.4297 22.3203C20.5599 22.4375 20.625 22.5807 20.625 22.75V25.25C20.625 25.4193 20.5599 25.569 20.4297 25.6992C20.3125 25.8164 20.1693 25.875 20 25.875ZM24.668 29.0586H15.332C14.5768 29.0586 13.8932 28.8047 13.2812 28.2969C12.6693 27.776 12.3047 27.138 12.1875 26.3828L11.0742 19.7422C10.9831 19.2344 11.0482 18.6875 11.2695 18.1016C11.4909 17.5156 11.8099 17.0599 12.2266 16.7344L18.0078 12.1055C18.5677 11.6628 19.2318 11.4414 20 11.4414C20.7682 11.4414 21.4323 11.6693 21.9922 12.125L27.7734 16.7344C28.1771 17.0599 28.4896 17.5156 28.7109 18.1016C28.9323 18.6875 29.0039 19.2344 28.9258 19.7422L27.8125 26.3828C27.6953 27.125 27.3242 27.7565 26.6992 28.2773C26.0872 28.7982 25.4102 29.0586 24.668 29.0586ZM20 12.6914C19.7786 12.6914 19.5573 12.724 19.3359 12.7891C19.1276 12.8542 18.9453 12.9518 18.7891 13.082L13.0078 17.7109C12.7734 17.9062 12.5846 18.1862 12.4414 18.5508C12.2982 18.9154 12.2526 19.2474 12.3047 19.5469L13.418 26.1875C13.4961 26.6172 13.724 26.9948 14.1016 27.3203C14.4792 27.6458 14.8893 27.8086 15.332 27.8086H24.668C25.1107 27.8086 25.5208 27.6458 25.8984 27.3203C26.276 26.9948 26.5039 26.6107 26.582 26.168L27.6953 19.5469C27.7344 19.2474 27.6823 18.9154 27.5391 18.5508C27.4089 18.1732 27.2266 17.8932 26.9922 17.7109L21.2109 13.082C21.0547 12.9518 20.8659 12.8542 20.6445 12.7891C20.4362 12.724 20.2214 12.6914 20 12.6914Z" fill="#17171D"/>
</svg>
